<svg xmlns="http://www.w3.org/2000/svg" xmlns:xlink="http://www.w3.org/1999/xlink" width="6912" zoomAndPan="magnify" viewBox="0 0 5184 2592.000001" height="3456" preserveAspectRatio="xMidYMid meet" version="1.0"><defs><g/></defs><g fill="#ffffff" fill-opacity="1"><g transform="translate(147.339223, 1430.63488)"><g><path d="M 268.65625 -91.53125 C 284.082031 -91.53125 299.0625 -93.859375 313.59375 -98.515625 C 328.132812 -103.179688 338.816406 -107.671875 345.640625 -111.984375 L 355.859375 -118.984375 L 398.9375 -32.84375 C 397.5 -31.757812 395.523438 -30.320312 393.015625 -28.53125 C 390.503906 -26.738281 384.671875 -23.421875 375.515625 -18.578125 C 366.359375 -13.734375 356.578125 -9.515625 346.171875 -5.921875 C 335.765625 -2.328125 322.125 0.898438 305.25 3.765625 C 288.382812 6.640625 270.976562 8.078125 253.03125 8.078125 C 211.757812 8.078125 172.640625 -2.0625 135.671875 -22.34375 C 98.703125 -42.625 68.910156 -70.53125 46.296875 -106.0625 C 23.679688 -141.59375 12.375 -179.992188 12.375 -221.265625 C 12.375 -252.492188 19.015625 -282.460938 32.296875 -311.171875 C 45.578125 -339.890625 63.253906 -364.476562 85.328125 -384.9375 C 107.398438 -405.394531 133.148438 -421.722656 162.578125 -433.921875 C 192.015625 -446.128906 222.164062 -452.234375 253.03125 -452.234375 C 281.75 -452.234375 308.21875 -448.820312 332.4375 -442 C 356.664062 -435.1875 373.804688 -428.367188 383.859375 -421.546875 L 398.9375 -411.3125 L 355.859375 -325.171875 C 353.347656 -327.328125 349.578125 -329.929688 344.546875 -332.984375 C 339.523438 -336.035156 329.476562 -340.070312 314.40625 -345.09375 C 299.332031 -350.125 284.082031 -352.640625 268.65625 -352.640625 C 244.25 -352.640625 222.351562 -348.691406 202.96875 -340.796875 C 183.582031 -332.898438 168.238281 -322.488281 156.9375 -309.5625 C 145.632812 -296.644531 137.019531 -282.738281 131.09375 -267.84375 C 125.175781 -252.945312 122.21875 -237.78125 122.21875 -222.34375 C 122.21875 -188.601562 134.867188 -158.363281 160.171875 -131.625 C 185.472656 -104.894531 221.632812 -91.53125 268.65625 -91.53125 Z M 268.65625 -91.53125 "/></g></g></g><g fill="#ffffff" fill-opacity="1"><g transform="translate(660.350694, 1430.63488)"><g><path d="M 133.515625 -444.15625 L 133.515625 -88.828125 L 286.421875 -88.828125 L 286.421875 0 L 32.296875 0 L 32.296875 -444.15625 Z M 133.515625 -444.15625 "/></g></g></g><g fill="#ffffff" fill-opacity="1"><g transform="translate(1072.164441, 1430.63488)"><g><path d="M 257.875 -444.15625 L 437.15625 0 L 328.40625 0 L 295.5625 -88.828125 L 126.515625 -88.828125 L 93.671875 0 L -15.078125 0 L 164.203125 -444.15625 Z M 261.109375 -177.65625 L 211.578125 -306.875 L 210.5 -306.875 L 160.96875 -177.65625 Z M 261.109375 -177.65625 "/></g></g></g><g fill="#ffffff" fill-opacity="1"><g transform="translate(1601.86258, 1430.63488)"><g><path d="M 195.96875 -452.234375 C 220.019531 -452.234375 243.53125 -448.734375 266.5 -441.734375 C 289.46875 -434.734375 306.515625 -427.828125 317.640625 -421.015625 L 333.796875 -410.234375 L 292.875 -329.484375 C 289.644531 -331.640625 285.15625 -334.421875 279.40625 -337.828125 C 273.664062 -341.234375 262.898438 -345.804688 247.109375 -351.546875 C 231.316406 -357.296875 216.601562 -360.171875 202.96875 -360.171875 C 186.09375 -360.171875 173.078125 -356.582031 163.921875 -349.40625 C 154.773438 -342.226562 150.203125 -332.535156 150.203125 -320.328125 C 150.203125 -314.234375 152.351562 -308.582031 156.65625 -303.375 C 160.96875 -298.164062 168.328125 -292.597656 178.734375 -286.671875 C 189.148438 -280.753906 198.304688 -276 206.203125 -272.40625 C 214.097656 -268.820312 226.300781 -263.441406 242.8125 -256.265625 C 271.519531 -244.066406 296.015625 -227.46875 316.296875 -206.46875 C 336.578125 -185.46875 346.71875 -161.6875 346.71875 -135.125 C 346.71875 -109.644531 342.140625 -87.394531 332.984375 -68.375 C 323.828125 -49.351562 311.265625 -34.457031 295.296875 -23.6875 C 279.328125 -12.914062 261.648438 -4.929688 242.265625 0.265625 C 222.890625 5.472656 201.894531 8.078125 179.28125 8.078125 C 159.894531 8.078125 140.867188 6.101562 122.203125 2.15625 C 103.546875 -1.789062 87.9375 -6.722656 75.375 -12.640625 C 62.8125 -18.566406 51.503906 -24.398438 41.453125 -30.140625 C 31.398438 -35.890625 24.039062 -40.738281 19.375 -44.6875 L 12.375 -50.609375 L 62.984375 -135.671875 C 67.296875 -132.078125 73.21875 -127.5 80.75 -121.9375 C 88.289062 -116.375 101.660156 -108.925781 120.859375 -99.59375 C 140.066406 -90.269531 157.023438 -85.609375 171.734375 -85.609375 C 214.453125 -85.609375 235.8125 -100.140625 235.8125 -129.203125 C 235.8125 -135.304688 234.285156 -140.957031 231.234375 -146.15625 C 228.179688 -151.363281 222.796875 -156.570312 215.078125 -161.78125 C 207.359375 -166.988281 200.535156 -171.113281 194.609375 -174.15625 C 188.691406 -177.207031 179.003906 -181.875 165.546875 -188.15625 C 152.085938 -194.4375 142.128906 -199.191406 135.671875 -202.421875 C 108.753906 -215.703125 87.9375 -232.300781 73.21875 -252.21875 C 58.5 -272.144531 51.140625 -293.59375 51.140625 -316.5625 C 51.140625 -356.40625 65.851562 -388.976562 95.28125 -414.28125 C 124.71875 -439.582031 158.28125 -452.234375 195.96875 -452.234375 Z M 195.96875 -452.234375 "/></g></g></g><g fill="#ffffff" fill-opacity="1"><g transform="translate(2071.273011, 1430.63488)"><g><path d="M 195.96875 -452.234375 C 220.019531 -452.234375 243.53125 -448.734375 266.5 -441.734375 C 289.46875 -434.734375 306.515625 -427.828125 317.640625 -421.015625 L 333.796875 -410.234375 L 292.875 -329.484375 C 289.644531 -331.640625 285.15625 -334.421875 279.40625 -337.828125 C 273.664062 -341.234375 262.898438 -345.804688 247.109375 -351.546875 C 231.316406 -357.296875 216.601562 -360.171875 202.96875 -360.171875 C 186.09375 -360.171875 173.078125 -356.582031 163.921875 -349.40625 C 154.773438 -342.226562 150.203125 -332.535156 150.203125 -320.328125 C 150.203125 -314.234375 152.351562 -308.582031 156.65625 -303.375 C 160.96875 -298.164062 168.328125 -292.597656 178.734375 -286.671875 C 189.148438 -280.753906 198.304688 -276 206.203125 -272.40625 C 214.097656 -268.820312 226.300781 -263.441406 242.8125 -256.265625 C 271.519531 -244.066406 296.015625 -227.46875 316.296875 -206.46875 C 336.578125 -185.46875 346.71875 -161.6875 346.71875 -135.125 C 346.71875 -109.644531 342.140625 -87.394531 332.984375 -68.375 C 323.828125 -49.351562 311.265625 -34.457031 295.296875 -23.6875 C 279.328125 -12.914062 261.648438 -4.929688 242.265625 0.265625 C 222.890625 5.472656 201.894531 8.078125 179.28125 8.078125 C 159.894531 8.078125 140.867188 6.101562 122.203125 2.15625 C 103.546875 -1.789062 87.9375 -6.722656 75.375 -12.640625 C 62.8125 -18.566406 51.503906 -24.398438 41.453125 -30.140625 C 31.398438 -35.890625 24.039062 -40.738281 19.375 -44.6875 L 12.375 -50.609375 L 62.984375 -135.671875 C 67.296875 -132.078125 73.21875 -127.5 80.75 -121.9375 C 88.289062 -116.375 101.660156 -108.925781 120.859375 -99.59375 C 140.066406 -90.269531 157.023438 -85.609375 171.734375 -85.609375 C 214.453125 -85.609375 235.8125 -100.140625 235.8125 -129.203125 C 235.8125 -135.304688 234.285156 -140.957031 231.234375 -146.15625 C 228.179688 -151.363281 222.796875 -156.570312 215.078125 -161.78125 C 207.359375 -166.988281 200.535156 -171.113281 194.609375 -174.15625 C 188.691406 -177.207031 179.003906 -181.875 165.546875 -188.15625 C 152.085938 -194.4375 142.128906 -199.191406 135.671875 -202.421875 C 108.753906 -215.703125 87.9375 -232.300781 73.21875 -252.21875 C 58.5 -272.144531 51.140625 -293.59375 51.140625 -316.5625 C 51.140625 -356.40625 65.851562 -388.976562 95.28125 -414.28125 C 124.71875 -439.582031 158.28125 -452.234375 195.96875 -452.234375 Z M 195.96875 -452.234375 "/></g></g></g><g fill="#ffffff" fill-opacity="1"><g transform="translate(2540.683442, 1430.63488)"><g><path d="M 268.65625 -91.53125 C 284.082031 -91.53125 299.0625 -93.859375 313.59375 -98.515625 C 328.132812 -103.179688 338.816406 -107.671875 345.640625 -111.984375 L 355.859375 -118.984375 L 398.9375 -32.84375 C 397.5 -31.757812 395.523438 -30.320312 393.015625 -28.53125 C 390.503906 -26.738281 384.671875 -23.421875 375.515625 -18.578125 C 366.359375 -13.734375 356.578125 -9.515625 346.171875 -5.921875 C 335.765625 -2.328125 322.125 0.898438 305.25 3.765625 C 288.382812 6.640625 270.976562 8.078125 253.03125 8.078125 C 211.757812 8.078125 172.640625 -2.0625 135.671875 -22.34375 C 98.703125 -42.625 68.910156 -70.53125 46.296875 -106.0625 C 23.679688 -141.59375 12.375 -179.992188 12.375 -221.265625 C 12.375 -252.492188 19.015625 -282.460938 32.296875 -311.171875 C 45.578125 -339.890625 63.253906 -364.476562 85.328125 -384.9375 C 107.398438 -405.394531 133.148438 -421.722656 162.578125 -433.921875 C 192.015625 -446.128906 222.164062 -452.234375 253.03125 -452.234375 C 281.75 -452.234375 308.21875 -448.820312 332.4375 -442 C 356.664062 -435.1875 373.804688 -428.367188 383.859375 -421.546875 L 398.9375 -411.3125 L 355.859375 -325.171875 C 353.347656 -327.328125 349.578125 -329.929688 344.546875 -332.984375 C 339.523438 -336.035156 329.476562 -340.070312 314.40625 -345.09375 C 299.332031 -350.125 284.082031 -352.640625 268.65625 -352.640625 C 244.25 -352.640625 222.351562 -348.691406 202.96875 -340.796875 C 183.582031 -332.898438 168.238281 -322.488281 156.9375 -309.5625 C 145.632812 -296.644531 137.019531 -282.738281 131.09375 -267.84375 C 125.175781 -252.945312 122.21875 -237.78125 122.21875 -222.34375 C 122.21875 -188.601562 134.867188 -158.363281 160.171875 -131.625 C 185.472656 -104.894531 221.632812 -91.53125 268.65625 -91.53125 Z M 268.65625 -91.53125 "/></g></g></g><g fill="#ffffff" fill-opacity="1"><g transform="translate(3053.694913, 1430.63488)"><g><path d="M 133.515625 -178.203125 L 133.515625 0 L 32.296875 0 L 32.296875 -444.15625 L 133.515625 -444.15625 L 133.515625 -267.03125 L 276.71875 -267.03125 L 276.71875 -444.15625 L 377.9375 -444.15625 L 377.9375 0 L 276.71875 0 L 276.71875 -178.203125 Z M 133.515625 -178.203125 "/></g></g></g><g fill="#ffffff" fill-opacity="1"><g transform="translate(3571.550943, 1430.63488)"><g><path d="M 286.421875 -444.15625 L 286.421875 -355.328125 L 133.515625 -355.328125 L 133.515625 -267.03125 L 279.953125 -267.03125 L 279.953125 -178.203125 L 133.515625 -178.203125 L 133.515625 -88.828125 L 286.421875 -88.828125 L 286.421875 0 L 32.296875 0 L 32.296875 -444.15625 Z M 286.421875 -444.15625 "/></g></g></g><g fill="#ffffff" fill-opacity="1"><g transform="translate(3991.439134, 1430.63488)"><g><path d="M 268.65625 -91.53125 C 284.082031 -91.53125 299.0625 -93.859375 313.59375 -98.515625 C 328.132812 -103.179688 338.816406 -107.671875 345.640625 -111.984375 L 355.859375 -118.984375 L 398.9375 -32.84375 C 397.5 -31.757812 395.523438 -30.320312 393.015625 -28.53125 C 390.503906 -26.738281 384.671875 -23.421875 375.515625 -18.578125 C 366.359375 -13.734375 356.578125 -9.515625 346.171875 -5.921875 C 335.765625 -2.328125 322.125 0.898438 305.25 3.765625 C 288.382812 6.640625 270.976562 8.078125 253.03125 8.078125 C 211.757812 8.078125 172.640625 -2.0625 135.671875 -22.34375 C 98.703125 -42.625 68.910156 -70.53125 46.296875 -106.0625 C 23.679688 -141.59375 12.375 -179.992188 12.375 -221.265625 C 12.375 -252.492188 19.015625 -282.460938 32.296875 -311.171875 C 45.578125 -339.890625 63.253906 -364.476562 85.328125 -384.9375 C 107.398438 -405.394531 133.148438 -421.722656 162.578125 -433.921875 C 192.015625 -446.128906 222.164062 -452.234375 253.03125 -452.234375 C 281.75 -452.234375 308.21875 -448.820312 332.4375 -442 C 356.664062 -435.1875 373.804688 -428.367188 383.859375 -421.546875 L 398.9375 -411.3125 L 355.859375 -325.171875 C 353.347656 -327.328125 349.578125 -329.929688 344.546875 -332.984375 C 339.523438 -336.035156 329.476562 -340.070312 314.40625 -345.09375 C 299.332031 -350.125 284.082031 -352.640625 268.65625 -352.640625 C 244.25 -352.640625 222.351562 -348.691406 202.96875 -340.796875 C 183.582031 -332.898438 168.238281 -322.488281 156.9375 -309.5625 C 145.632812 -296.644531 137.019531 -282.738281 131.09375 -267.84375 C 125.175781 -252.945312 122.21875 -237.78125 122.21875 -222.34375 C 122.21875 -188.601562 134.867188 -158.363281 160.171875 -131.625 C 185.472656 -104.894531 221.632812 -91.53125 268.65625 -91.53125 Z M 268.65625 -91.53125 "/></g></g></g><g fill="#ffffff" fill-opacity="1"><g transform="translate(4504.450606, 1430.63488)"><g><path d="M 436.625 0 L 297.1875 0 L 133.515625 -188.4375 L 133.515625 0 L 32.296875 0 L 32.296875 -444.15625 L 133.515625 -444.15625 L 133.515625 -262.734375 L 285.875 -444.15625 L 408.625 -444.15625 L 229.890625 -233.65625 Z M 436.625 0 "/></g></g></g></svg>