<svg xmlns="http://www.w3.org/2000/svg" xmlns:xlink="http://www.w3.org/1999/xlink" width="500" zoomAndPan="magnify" viewBox="0 0 375 374.999991" height="500" preserveAspectRatio="xMidYMid meet" version="1.0"><defs><clipPath id="7b6575d7b8"><path d="M 19.121094 19.121094 L 355.878906 19.121094 L 355.878906 355.878906 L 19.121094 355.878906 Z M 19.121094 19.121094 " clip-rule="nonzero"/></clipPath><clipPath id="91df1af5d9"><path d="M 187.5 19.121094 C 181.984375 19.121094 176.484375 19.390625 170.996094 19.929688 C 165.507812 20.472656 160.058594 21.28125 154.652344 22.355469 C 149.242188 23.433594 143.898438 24.769531 138.621094 26.371094 C 133.34375 27.972656 128.160156 29.828125 123.0625 31.9375 C 117.96875 34.046875 112.988281 36.402344 108.125 39.003906 C 103.261719 41.601562 98.539062 44.433594 93.953125 47.496094 C 89.367188 50.5625 84.945312 53.84375 80.679688 57.339844 C 76.417969 60.839844 72.335938 64.539062 68.4375 68.4375 C 64.539062 72.335938 60.839844 76.417969 57.339844 80.679688 C 53.84375 84.945312 50.5625 89.367188 47.496094 93.953125 C 44.433594 98.539062 41.601562 103.261719 39.003906 108.125 C 36.402344 112.988281 34.046875 117.96875 31.9375 123.0625 C 29.828125 128.160156 27.972656 133.34375 26.371094 138.621094 C 24.769531 143.898438 23.433594 149.242188 22.355469 154.652344 C 21.28125 160.058594 20.472656 165.507812 19.929688 170.996094 C 19.390625 176.484375 19.121094 181.984375 19.121094 187.5 C 19.121094 193.015625 19.390625 198.515625 19.929688 204.003906 C 20.472656 209.492188 21.28125 214.941406 22.355469 220.347656 C 23.433594 225.757812 24.769531 231.101562 26.371094 236.378906 C 27.972656 241.65625 29.828125 246.839844 31.9375 251.9375 C 34.046875 257.03125 36.402344 262.011719 39.003906 266.875 C 41.601562 271.738281 44.433594 276.460938 47.496094 281.046875 C 50.5625 285.632812 53.84375 290.054688 57.339844 294.320312 C 60.839844 298.582031 64.539062 302.664062 68.4375 306.5625 C 72.335938 310.460938 76.417969 314.160156 80.679688 317.660156 C 84.945312 321.15625 89.367188 324.4375 93.953125 327.503906 C 98.539062 330.566406 103.261719 333.398438 108.125 335.996094 C 112.988281 338.597656 117.96875 340.953125 123.0625 343.0625 C 128.160156 345.171875 133.34375 347.027344 138.621094 348.628906 C 143.898438 350.230469 149.242188 351.566406 154.652344 352.644531 C 160.058594 353.71875 165.507812 354.527344 170.996094 355.070312 C 176.484375 355.609375 181.984375 355.878906 187.5 355.878906 C 193.015625 355.878906 198.515625 355.609375 204.003906 355.070312 C 209.492188 354.527344 214.941406 353.71875 220.347656 352.644531 C 225.757812 351.566406 231.101562 350.230469 236.378906 348.628906 C 241.65625 347.027344 246.839844 345.171875 251.9375 343.0625 C 257.03125 340.953125 262.011719 338.597656 266.875 335.996094 C 271.738281 333.398438 276.460938 330.566406 281.046875 327.503906 C 285.632812 324.4375 290.054688 321.15625 294.320312 317.660156 C 298.582031 314.160156 302.664062 310.460938 306.5625 306.5625 C 310.460938 302.664062 314.160156 298.582031 317.660156 294.320312 C 321.15625 290.054688 324.4375 285.632812 327.503906 281.046875 C 330.566406 276.460938 333.398438 271.738281 335.996094 266.875 C 338.597656 262.011719 340.953125 257.03125 343.0625 251.9375 C 345.171875 246.839844 347.027344 241.65625 348.628906 236.378906 C 350.230469 231.101562 351.566406 225.757812 352.644531 220.347656 C 353.71875 214.941406 354.527344 209.492188 355.070312 204.003906 C 355.609375 198.515625 355.878906 193.015625 355.878906 187.5 C 355.878906 181.984375 355.609375 176.484375 355.070312 170.996094 C 354.527344 165.507812 353.71875 160.058594 352.644531 154.652344 C 351.566406 149.242188 350.230469 143.898438 348.628906 138.621094 C 347.027344 133.34375 345.171875 128.160156 343.0625 123.0625 C 340.953125 117.96875 338.597656 112.988281 335.996094 108.125 C 333.398438 103.261719 330.566406 98.539062 327.503906 93.953125 C 324.4375 89.367188 321.15625 84.945312 317.660156 80.679688 C 314.160156 76.417969 310.460938 72.335938 306.5625 68.4375 C 302.664062 64.539062 298.582031 60.839844 294.320312 57.339844 C 290.054688 53.84375 285.632812 50.5625 281.046875 47.496094 C 276.460938 44.433594 271.738281 41.601562 266.875 39.003906 C 262.011719 36.402344 257.03125 34.046875 251.9375 31.9375 C 246.839844 29.828125 241.65625 27.972656 236.378906 26.371094 C 231.101562 24.769531 225.757812 23.433594 220.347656 22.355469 C 214.941406 21.28125 209.492188 20.472656 204.003906 19.929688 C 198.515625 19.390625 193.015625 19.121094 187.5 19.121094 Z M 187.5 19.121094 " clip-rule="nonzero"/></clipPath><clipPath id="477017c4f2"><path d="M 55.882812 55.882812 L 319.132812 55.882812 L 319.132812 319.132812 L 55.882812 319.132812 Z M 55.882812 55.882812 " clip-rule="nonzero"/></clipPath></defs><g clip-path="url(#7b6575d7b8)"><g clip-path="url(#91df1af5d9)"><path fill="#1f4e70" d="M 19.121094 19.121094 L 355.878906 19.121094 L 355.878906 355.878906 L 19.121094 355.878906 Z M 19.121094 19.121094 " fill-opacity="1" fill-rule="nonzero"/></g></g><g clip-path="url(#477017c4f2)"><path fill="#ffffff" d="M 187.507812 319.132812 C 185.351562 319.132812 183.199219 319.078125 181.046875 318.972656 C 178.894531 318.867188 176.75 318.707031 174.605469 318.496094 C 172.460938 318.285156 170.324219 318.023438 168.191406 317.707031 C 166.0625 317.390625 163.941406 317.023438 161.828125 316.601562 C 159.714844 316.183594 157.613281 315.710938 155.523438 315.1875 C 153.433594 314.664062 151.359375 314.089844 149.296875 313.464844 C 147.234375 312.839844 145.191406 312.164062 143.164062 311.4375 C 141.136719 310.710938 139.125 309.9375 137.136719 309.113281 C 135.144531 308.289062 133.175781 307.414062 131.230469 306.492188 C 129.28125 305.574219 127.359375 304.605469 125.457031 303.589844 C 123.558594 302.574219 121.683594 301.511719 119.835938 300.40625 C 117.988281 299.296875 116.171875 298.144531 114.378906 296.949219 C 112.589844 295.75 110.828125 294.511719 109.097656 293.226562 C 107.367188 291.945312 105.667969 290.621094 104.003906 289.253906 C 102.339844 287.886719 100.707031 286.480469 99.113281 285.035156 C 97.515625 283.585938 95.957031 282.101562 94.433594 280.578125 C 92.910156 279.054688 91.425781 277.496094 89.976562 275.898438 C 88.53125 274.304688 87.125 272.671875 85.757812 271.007812 C 84.390625 269.34375 83.066406 267.644531 81.785156 265.914062 C 80.5 264.183594 79.261719 262.425781 78.0625 260.632812 C 76.867188 258.84375 75.714844 257.023438 74.609375 255.175781 C 73.5 253.328125 72.4375 251.453125 71.421875 249.554688 C 70.40625 247.652344 69.441406 245.730469 68.519531 243.78125 C 67.597656 241.835938 66.726562 239.867188 65.902344 237.875 C 65.074219 235.886719 64.300781 233.878906 63.574219 231.847656 C 62.851562 229.820312 62.175781 227.777344 61.550781 225.714844 C 60.921875 223.652344 60.347656 221.578125 59.824219 219.488281 C 59.300781 217.398438 58.832031 215.296875 58.410156 213.183594 C 57.988281 211.070312 57.621094 208.949219 57.304688 206.820312 C 56.988281 204.6875 56.726562 202.550781 56.515625 200.40625 C 56.304688 198.265625 56.144531 196.117188 56.039062 193.964844 C 55.933594 191.8125 55.882812 189.660156 55.882812 187.507812 C 55.882812 185.351562 55.933594 183.199219 56.039062 181.046875 C 56.144531 178.894531 56.304688 176.75 56.515625 174.605469 C 56.726562 172.460938 56.988281 170.324219 57.304688 168.191406 C 57.621094 166.0625 57.988281 163.941406 58.410156 161.828125 C 58.832031 159.714844 59.300781 157.613281 59.824219 155.523438 C 60.347656 153.433594 60.921875 151.359375 61.550781 149.296875 C 62.175781 147.234375 62.851562 145.191406 63.574219 143.164062 C 64.300781 141.132812 65.074219 139.125 65.902344 137.136719 C 66.726562 135.144531 67.597656 133.175781 68.519531 131.230469 C 69.441406 129.28125 70.40625 127.359375 71.421875 125.457031 C 72.4375 123.558594 73.5 121.683594 74.609375 119.835938 C 75.714844 117.988281 76.867188 116.171875 78.0625 114.378906 C 79.261719 112.589844 80.5 110.828125 81.785156 109.097656 C 83.066406 107.367188 84.390625 105.667969 85.757812 104.003906 C 87.125 102.339844 88.53125 100.707031 89.976562 99.113281 C 91.425781 97.515625 92.910156 95.957031 94.433594 94.433594 C 95.957031 92.910156 97.515625 91.425781 99.113281 89.976562 C 100.707031 88.53125 102.339844 87.125 104.003906 85.757812 C 105.667969 84.390625 107.367188 83.066406 109.097656 81.785156 C 110.828125 80.5 112.589844 79.261719 114.378906 78.0625 C 116.171875 76.867188 117.988281 75.714844 119.835938 74.609375 C 121.683594 73.5 123.558594 72.4375 125.457031 71.421875 C 127.359375 70.40625 129.28125 69.441406 131.230469 68.519531 C 133.175781 67.597656 135.144531 66.726562 137.136719 65.902344 C 139.125 65.074219 141.136719 64.300781 143.164062 63.574219 C 145.191406 62.851562 147.234375 62.175781 149.296875 61.550781 C 151.359375 60.921875 153.433594 60.347656 155.523438 59.824219 C 157.613281 59.300781 159.714844 58.832031 161.828125 58.410156 C 163.941406 57.988281 166.0625 57.621094 168.191406 57.304688 C 170.324219 56.988281 172.460938 56.726562 174.605469 56.515625 C 176.75 56.304688 178.894531 56.144531 181.046875 56.039062 C 183.199219 55.933594 185.351562 55.882812 187.507812 55.882812 C 189.660156 55.882812 191.8125 55.933594 193.964844 56.039062 C 196.117188 56.144531 198.265625 56.304688 200.40625 56.515625 C 202.550781 56.726562 204.6875 56.988281 206.820312 57.304688 C 208.949219 57.621094 211.070312 57.988281 213.183594 58.410156 C 215.296875 58.832031 217.398438 59.300781 219.488281 59.824219 C 221.578125 60.347656 223.652344 60.921875 225.714844 61.550781 C 227.777344 62.175781 229.820312 62.851562 231.847656 63.574219 C 233.878906 64.300781 235.886719 65.074219 237.875 65.902344 C 239.867188 66.726562 241.835938 67.597656 243.78125 68.519531 C 245.730469 69.441406 247.652344 70.40625 249.554688 71.421875 C 251.453125 72.4375 253.328125 73.5 255.175781 74.609375 C 257.023438 75.714844 258.84375 76.867188 260.632812 78.0625 C 262.425781 79.261719 264.183594 80.5 265.914062 81.785156 C 267.644531 83.066406 269.34375 84.390625 271.007812 85.757812 C 272.671875 87.125 274.304688 88.53125 275.898438 89.976562 C 277.496094 91.425781 279.054688 92.910156 280.578125 94.433594 C 282.101562 95.957031 283.585938 97.515625 285.035156 99.113281 C 286.480469 100.707031 287.886719 102.339844 289.253906 104.003906 C 290.621094 105.667969 291.945312 107.367188 293.226562 109.097656 C 294.511719 110.828125 295.75 112.589844 296.949219 114.378906 C 298.144531 116.171875 299.296875 117.988281 300.40625 119.835938 C 301.511719 121.683594 302.574219 123.558594 303.589844 125.457031 C 304.605469 127.359375 305.574219 129.28125 306.492188 131.230469 C 307.414062 133.175781 308.289062 135.144531 309.113281 137.136719 C 309.9375 139.125 310.710938 141.132812 311.4375 143.164062 C 312.164062 145.191406 312.839844 147.234375 313.464844 149.296875 C 314.089844 151.359375 314.664062 153.433594 315.1875 155.523438 C 315.710938 157.613281 316.183594 159.714844 316.601562 161.828125 C 317.023438 163.941406 317.390625 166.0625 317.707031 168.191406 C 318.023438 170.324219 318.285156 172.460938 318.496094 174.605469 C 318.707031 176.75 318.867188 178.894531 318.972656 181.046875 C 319.078125 183.199219 319.132812 185.351562 319.132812 187.507812 C 319.128906 189.660156 319.074219 191.8125 318.964844 193.960938 C 318.855469 196.113281 318.695312 198.261719 318.484375 200.402344 C 318.269531 202.546875 318.003906 204.683594 317.6875 206.8125 C 317.367188 208.941406 317 211.0625 316.578125 213.175781 C 316.15625 215.285156 315.679688 217.386719 315.15625 219.476562 C 314.632812 221.5625 314.054688 223.636719 313.429688 225.699219 C 312.800781 227.757812 312.125 229.800781 311.398438 231.828125 C 310.671875 233.855469 309.894531 235.863281 309.070312 237.851562 C 308.246094 239.84375 307.371094 241.808594 306.449219 243.757812 C 305.527344 245.703125 304.558594 247.625 303.542969 249.523438 C 302.527344 251.421875 301.464844 253.296875 300.359375 255.140625 C 299.25 256.988281 298.097656 258.808594 296.902344 260.597656 C 295.703125 262.386719 294.464844 264.148438 293.179688 265.875 C 291.898438 267.605469 290.574219 269.300781 289.207031 270.96875 C 287.839844 272.632812 286.433594 274.261719 284.988281 275.855469 C 283.542969 277.453125 282.058594 279.011719 280.535156 280.535156 C 279.011719 282.058594 277.453125 283.542969 275.855469 284.988281 C 274.261719 286.433594 272.632812 287.839844 270.96875 289.207031 C 269.300781 290.574219 267.605469 291.898438 265.875 293.179688 C 264.148438 294.464844 262.386719 295.703125 260.597656 296.902344 C 258.808594 298.097656 256.988281 299.25 255.140625 300.359375 C 253.296875 301.464844 251.421875 302.527344 249.523438 303.542969 C 247.625 304.558594 245.703125 305.527344 243.757812 306.449219 C 241.808594 307.371094 239.84375 308.246094 237.851562 309.070312 C 235.863281 309.894531 233.855469 310.671875 231.828125 311.398438 C 229.800781 312.125 227.757812 312.800781 225.699219 313.429688 C 223.636719 314.054688 221.5625 314.632812 219.476562 315.15625 C 217.386719 315.679688 215.285156 316.15625 213.175781 316.578125 C 211.0625 317 208.941406 317.367188 206.8125 317.6875 C 204.683594 318.003906 202.546875 318.269531 200.402344 318.484375 C 198.261719 318.695312 196.113281 318.855469 193.960938 318.964844 C 191.8125 319.074219 189.660156 319.128906 187.507812 319.132812 Z M 187.507812 69.738281 C 185.578125 69.738281 183.652344 69.785156 181.726562 69.878906 C 179.800781 69.972656 177.878906 70.113281 175.960938 70.304688 C 174.042969 70.492188 172.132812 70.726562 170.226562 71.011719 C 168.320312 71.292969 166.421875 71.625 164.53125 72 C 162.640625 72.375 160.761719 72.796875 158.890625 73.265625 C 157.019531 73.734375 155.164062 74.246094 153.320312 74.808594 C 151.476562 75.367188 149.644531 75.972656 147.832031 76.621094 C 146.015625 77.269531 144.21875 77.964844 142.4375 78.699219 C 140.65625 79.4375 138.894531 80.21875 137.152344 81.042969 C 135.410156 81.867188 133.691406 82.734375 131.988281 83.640625 C 130.289062 84.550781 128.613281 85.5 126.960938 86.492188 C 125.308594 87.484375 123.679688 88.511719 122.078125 89.585938 C 120.472656 90.65625 118.898438 91.765625 117.351562 92.914062 C 115.800781 94.0625 114.285156 95.246094 112.792969 96.46875 C 111.304688 97.691406 109.84375 98.949219 108.417969 100.246094 C 106.988281 101.539062 105.59375 102.867188 104.230469 104.230469 C 102.867188 105.59375 101.539062 106.988281 100.246094 108.417969 C 98.949219 109.84375 97.691406 111.304688 96.46875 112.792969 C 95.246094 114.285156 94.0625 115.800781 92.914062 117.351562 C 91.765625 118.898438 90.65625 120.472656 89.585938 122.078125 C 88.511719 123.679688 87.484375 125.308594 86.492188 126.960938 C 85.5 128.613281 84.550781 130.289062 83.640625 131.988281 C 82.734375 133.691406 81.867188 135.410156 81.042969 137.152344 C 80.21875 138.894531 79.4375 140.65625 78.699219 142.4375 C 77.964844 144.21875 77.269531 146.015625 76.621094 147.832031 C 75.972656 149.644531 75.367188 151.476562 74.808594 153.320312 C 74.246094 155.164062 73.734375 157.019531 73.265625 158.890625 C 72.796875 160.761719 72.375 162.640625 72 164.53125 C 71.625 166.421875 71.292969 168.320312 71.011719 170.226562 C 70.726562 172.132812 70.492188 174.042969 70.304688 175.960938 C 70.113281 177.878906 69.972656 179.800781 69.878906 181.726562 C 69.785156 183.652344 69.738281 185.578125 69.738281 187.507812 C 69.738281 189.433594 69.785156 191.359375 69.878906 193.285156 C 69.972656 195.210938 70.113281 197.132812 70.304688 199.050781 C 70.492188 200.96875 70.726562 202.878906 71.011719 204.785156 C 71.292969 206.691406 71.625 208.589844 72 210.480469 C 72.375 212.371094 72.796875 214.253906 73.265625 216.121094 C 73.734375 217.992188 74.246094 219.847656 74.808594 221.691406 C 75.367188 223.539062 75.972656 225.367188 76.621094 227.179688 C 77.269531 228.996094 77.964844 230.792969 78.699219 232.574219 C 79.4375 234.355469 80.21875 236.117188 81.042969 237.859375 C 81.867188 239.601562 82.734375 241.324219 83.640625 243.023438 C 84.550781 244.722656 85.5 246.398438 86.492188 248.050781 C 87.484375 249.703125 88.511719 251.332031 89.585938 252.933594 C 90.65625 254.539062 91.765625 256.113281 92.914062 257.660156 C 94.0625 259.210938 95.246094 260.726562 96.46875 262.21875 C 97.691406 263.707031 98.949219 265.167969 100.246094 266.59375 C 101.539062 268.023438 102.867188 269.417969 104.230469 270.78125 C 105.59375 272.144531 106.988281 273.472656 108.417969 274.769531 C 109.84375 276.0625 111.304688 277.320312 112.792969 278.542969 C 114.285156 279.765625 115.800781 280.953125 117.351562 282.101562 C 118.898438 283.246094 120.472656 284.355469 122.078125 285.429688 C 123.679688 286.5 125.308594 287.53125 126.960938 288.519531 C 128.613281 289.511719 130.289062 290.460938 131.988281 291.371094 C 133.691406 292.277344 135.410156 293.144531 137.152344 293.96875 C 138.894531 294.792969 140.65625 295.574219 142.4375 296.3125 C 144.21875 297.046875 146.015625 297.742188 147.832031 298.390625 C 149.644531 299.039062 151.476562 299.644531 153.320312 300.203125 C 155.164062 300.765625 157.019531 301.277344 158.890625 301.746094 C 160.761719 302.214844 162.640625 302.636719 164.53125 303.011719 C 166.421875 303.390625 168.320312 303.71875 170.226562 304 C 172.132812 304.285156 174.042969 304.519531 175.960938 304.707031 C 177.878906 304.898438 179.800781 305.039062 181.726562 305.132812 C 183.652344 305.230469 185.578125 305.277344 187.507812 305.277344 C 189.433594 305.277344 191.359375 305.230469 193.285156 305.132812 C 195.210938 305.039062 197.132812 304.898438 199.050781 304.707031 C 200.96875 304.519531 202.878906 304.285156 204.785156 304 C 206.691406 303.71875 208.589844 303.390625 210.480469 303.011719 C 212.371094 302.636719 214.253906 302.214844 216.121094 301.746094 C 217.992188 301.277344 219.847656 300.765625 221.691406 300.203125 C 223.539062 299.644531 225.367188 299.039062 227.179688 298.390625 C 228.996094 297.742188 230.792969 297.046875 232.574219 296.3125 C 234.355469 295.574219 236.117188 294.792969 237.859375 293.96875 C 239.601562 293.144531 241.324219 292.277344 243.023438 291.371094 C 244.722656 290.460938 246.398438 289.511719 248.050781 288.519531 C 249.703125 287.53125 251.332031 286.5 252.933594 285.429688 C 254.539062 284.355469 256.113281 283.246094 257.660156 282.097656 C 259.210938 280.953125 260.730469 279.765625 262.21875 278.542969 C 263.707031 277.320312 265.167969 276.0625 266.59375 274.769531 C 268.023438 273.472656 269.417969 272.144531 270.78125 270.78125 C 272.144531 269.417969 273.472656 268.023438 274.769531 266.59375 C 276.0625 265.167969 277.320312 263.707031 278.542969 262.21875 C 279.765625 260.726562 280.953125 259.210938 282.101562 257.660156 C 283.246094 256.113281 284.355469 254.539062 285.429688 252.933594 C 286.5 251.332031 287.53125 249.703125 288.519531 248.050781 C 289.511719 246.398438 290.460938 244.722656 291.371094 243.023438 C 292.277344 241.324219 293.144531 239.601562 293.96875 237.859375 C 294.792969 236.117188 295.574219 234.355469 296.3125 232.574219 C 297.046875 230.792969 297.742188 228.996094 298.390625 227.179688 C 299.039062 225.367188 299.644531 223.539062 300.203125 221.691406 C 300.765625 219.847656 301.277344 217.992188 301.746094 216.121094 C 302.214844 214.253906 302.636719 212.371094 303.011719 210.480469 C 303.390625 208.589844 303.71875 206.691406 304 204.785156 C 304.285156 202.878906 304.519531 200.96875 304.707031 199.050781 C 304.898438 197.132812 305.039062 195.210938 305.132812 193.285156 C 305.230469 191.359375 305.277344 189.433594 305.277344 187.507812 C 305.273438 185.578125 305.222656 183.652344 305.128906 181.730469 C 305.03125 179.804688 304.886719 177.882812 304.695312 175.96875 C 304.503906 174.050781 304.269531 172.136719 303.984375 170.234375 C 303.699219 168.328125 303.367188 166.429688 302.988281 164.539062 C 302.613281 162.652344 302.1875 160.773438 301.71875 158.902344 C 301.25 157.035156 300.734375 155.179688 300.171875 153.335938 C 299.613281 151.492188 299.007812 149.664062 298.355469 147.847656 C 297.707031 146.035156 297.011719 144.238281 296.273438 142.460938 C 295.535156 140.679688 294.753906 138.917969 293.929688 137.175781 C 293.105469 135.4375 292.238281 133.714844 291.328125 132.015625 C 290.421875 130.316406 289.46875 128.644531 288.480469 126.992188 C 287.488281 125.339844 286.457031 123.710938 285.386719 122.109375 C 284.316406 120.507812 283.207031 118.933594 282.058594 117.386719 C 280.910156 115.839844 279.722656 114.320312 278.5 112.832031 C 277.277344 111.339844 276.019531 109.882812 274.726562 108.457031 C 273.433594 107.027344 272.105469 105.632812 270.742188 104.269531 C 269.378906 102.910156 267.984375 101.582031 266.554688 100.285156 C 265.128906 98.992188 263.671875 97.734375 262.179688 96.511719 C 260.691406 95.289062 259.171875 94.101562 257.625 92.957031 C 256.078125 91.808594 254.503906 90.699219 252.902344 89.625 C 251.300781 88.554688 249.675781 87.523438 248.023438 86.535156 C 246.371094 85.542969 244.695312 84.59375 242.996094 83.683594 C 241.296875 82.773438 239.574219 81.90625 237.835938 81.082031 C 236.09375 80.257812 234.332031 79.476562 232.554688 78.738281 C 230.773438 78 228.976562 77.304688 227.164062 76.65625 C 225.347656 76.003906 223.519531 75.398438 221.675781 74.839844 C 219.835938 74.277344 217.976562 73.761719 216.109375 73.292969 C 214.242188 72.824219 212.363281 72.398438 210.472656 72.023438 C 208.582031 71.644531 206.683594 71.3125 204.78125 71.027344 C 202.875 70.746094 200.960938 70.507812 199.046875 70.316406 C 197.128906 70.125 195.207031 69.980469 193.28125 69.886719 C 191.359375 69.789062 189.433594 69.738281 187.507812 69.738281 Z M 161.179688 246.058594 C 160.261719 246.058594 159.375 245.882812 158.527344 245.527344 C 157.675781 245.175781 156.925781 244.671875 156.277344 244.023438 L 111.648438 199.378906 C 111.316406 199.0625 111.023438 198.710938 110.761719 198.332031 C 110.5 197.953125 110.277344 197.554688 110.097656 197.132812 C 109.914062 196.707031 109.777344 196.273438 109.683594 195.824219 C 109.585938 195.371094 109.539062 194.917969 109.535156 194.457031 C 109.53125 193.996094 109.570312 193.542969 109.65625 193.089844 C 109.746094 192.636719 109.875 192.199219 110.050781 191.773438 C 110.222656 191.347656 110.4375 190.945312 110.691406 190.5625 C 110.949219 190.179688 111.238281 189.824219 111.5625 189.5 C 111.886719 189.171875 112.242188 188.882812 112.625 188.628906 C 113.007812 188.375 113.414062 188.160156 113.839844 187.984375 C 114.265625 187.8125 114.703125 187.679688 115.152344 187.59375 C 115.605469 187.507812 116.0625 187.464844 116.519531 187.46875 C 116.980469 187.472656 117.4375 187.523438 117.886719 187.617188 C 118.335938 187.710938 118.773438 187.851562 119.195312 188.03125 C 119.617188 188.214844 120.019531 188.433594 120.398438 188.695312 C 120.777344 188.957031 121.125 189.253906 121.445312 189.585938 L 161.179688 229.335938 L 252.058594 138.445312 C 252.382812 138.132812 252.730469 137.855469 253.109375 137.609375 C 253.488281 137.367188 253.886719 137.160156 254.304688 136.992188 C 254.722656 136.828125 255.152344 136.703125 255.59375 136.617188 C 256.035156 136.535156 256.480469 136.496094 256.929688 136.5 C 257.378906 136.503906 257.824219 136.550781 258.265625 136.640625 C 258.707031 136.734375 259.132812 136.863281 259.550781 137.039062 C 259.964844 137.210938 260.359375 137.425781 260.730469 137.675781 C 261.105469 137.925781 261.449219 138.210938 261.769531 138.527344 C 262.085938 138.847656 262.371094 139.191406 262.621094 139.566406 C 262.871094 139.941406 263.085938 140.332031 263.257812 140.75 C 263.433594 141.164062 263.566406 141.589844 263.65625 142.03125 C 263.746094 142.472656 263.792969 142.917969 263.796875 143.367188 C 263.800781 143.816406 263.761719 144.261719 263.679688 144.707031 C 263.597656 145.148438 263.472656 145.578125 263.304688 145.996094 C 263.136719 146.414062 262.933594 146.8125 262.6875 147.1875 C 262.445312 147.566406 262.164062 147.917969 261.851562 148.242188 L 166.085938 244.023438 C 165.4375 244.671875 164.6875 245.175781 163.835938 245.527344 C 162.988281 245.882812 162.101562 246.058594 161.179688 246.058594 Z M 161.179688 246.058594 " fill-opacity="1" fill-rule="nonzero"/></g></svg>