<svg xmlns="http://www.w3.org/2000/svg" xmlns:xlink="http://www.w3.org/1999/xlink" width="6912" zoomAndPan="magnify" viewBox="0 0 5184 2592.000001" height="3456" preserveAspectRatio="xMidYMid meet" version="1.0"><defs><g/><clipPath id="a9a29f6e53"><path d="M 103.832031 545.546875 L 1603.734375 545.546875 L 1603.734375 2045.453125 L 103.832031 2045.453125 Z M 103.832031 545.546875 " clip-rule="nonzero"/></clipPath><clipPath id="bac360b41f"><path d="M 853.78125 545.546875 C 841.507812 545.546875 829.242188 545.851562 816.984375 546.453125 C 804.726562 547.054688 792.488281 547.957031 780.273438 549.160156 C 768.058594 550.363281 755.882812 551.863281 743.742188 553.664062 C 731.601562 555.464844 719.511719 557.5625 707.472656 559.957031 C 695.4375 562.351562 683.464844 565.042969 671.558594 568.023438 C 659.652344 571.007812 647.828125 574.277344 636.082031 577.839844 C 624.339844 581.402344 612.6875 585.253906 601.132812 589.386719 C 589.574219 593.523438 578.128906 597.9375 566.789062 602.636719 C 555.449219 607.332031 544.230469 612.304688 533.136719 617.550781 C 522.042969 622.800781 511.082031 628.316406 500.257812 634.101562 C 489.433594 639.886719 478.757812 645.933594 468.230469 652.246094 C 457.703125 658.554688 447.335938 665.121094 437.132812 671.9375 C 426.925781 678.757812 416.894531 685.820312 407.035156 693.132812 C 397.179688 700.445312 387.507812 707.992188 378.019531 715.78125 C 368.53125 723.566406 359.238281 731.582031 350.144531 739.824219 C 341.050781 748.066406 332.164062 756.527344 323.488281 765.203125 C 314.808594 773.882812 306.347656 782.769531 298.105469 791.863281 C 289.863281 800.957031 281.847656 810.25 274.0625 819.734375 C 266.277344 829.222656 258.726562 838.894531 251.414062 848.753906 C 244.105469 858.613281 237.039062 868.644531 230.21875 878.847656 C 223.402344 889.054688 216.835938 899.421875 210.527344 909.949219 C 204.21875 920.476562 198.171875 931.152344 192.382812 941.976562 C 186.597656 952.800781 181.082031 963.757812 175.835938 974.855469 C 170.585938 985.949219 165.613281 997.167969 160.917969 1008.507812 C 156.222656 1019.84375 151.804688 1031.292969 147.671875 1042.847656 C 143.535156 1054.40625 139.6875 1066.054688 136.125 1077.800781 C 132.5625 1089.546875 129.289062 1101.371094 126.304688 1113.277344 C 123.324219 1125.183594 120.636719 1137.152344 118.242188 1149.191406 C 115.847656 1161.230469 113.75 1173.320312 111.949219 1185.460938 C 110.148438 1197.601562 108.644531 1209.777344 107.441406 1221.992188 C 106.238281 1234.207031 105.335938 1246.441406 104.734375 1258.703125 C 104.132812 1270.960938 103.832031 1283.226562 103.832031 1295.5 C 103.832031 1307.773438 104.132812 1320.039062 104.734375 1332.296875 C 105.335938 1344.558594 106.238281 1356.792969 107.441406 1369.007812 C 108.644531 1381.222656 110.148438 1393.398438 111.949219 1405.539062 C 113.75 1417.679688 115.847656 1429.769531 118.242188 1441.808594 C 120.636719 1453.847656 123.324219 1465.816406 126.304688 1477.722656 C 129.289062 1489.628906 132.5625 1501.453125 136.125 1513.199219 C 139.6875 1524.945312 143.535156 1536.59375 147.671875 1548.152344 C 151.804688 1559.707031 156.222656 1571.15625 160.917969 1582.492188 C 165.613281 1593.832031 170.585938 1605.050781 175.835938 1616.144531 C 181.082031 1627.242188 186.597656 1638.199219 192.382812 1649.023438 C 198.171875 1659.847656 204.21875 1670.523438 210.527344 1681.050781 C 216.835938 1691.578125 223.402344 1701.945312 230.222656 1712.152344 C 237.039062 1722.355469 244.105469 1732.386719 251.414062 1742.246094 C 258.726562 1752.105469 266.277344 1761.777344 274.0625 1771.265625 C 281.847656 1780.75 289.863281 1790.042969 298.105469 1799.136719 C 306.347656 1808.230469 314.808594 1817.117188 323.488281 1825.796875 C 332.164062 1834.476562 341.050781 1842.933594 350.144531 1851.175781 C 359.238281 1859.421875 368.53125 1867.433594 378.019531 1875.21875 C 387.507812 1883.007812 397.179688 1890.554688 407.035156 1897.867188 C 416.894531 1905.179688 426.925781 1912.242188 437.132812 1919.0625 C 447.335938 1925.878906 457.703125 1932.445312 468.230469 1938.753906 C 478.757812 1945.066406 489.433594 1951.113281 500.257812 1956.898438 C 511.082031 1962.683594 522.042969 1968.199219 533.136719 1973.449219 C 544.230469 1978.695312 555.449219 1983.667969 566.789062 1988.363281 C 578.128906 1993.0625 589.574219 1997.476562 601.132812 2001.613281 C 612.6875 2005.746094 624.339844 2009.597656 636.082031 2013.160156 C 647.828125 2016.722656 659.652344 2019.996094 671.558594 2022.976562 C 683.464844 2025.957031 695.4375 2028.648438 707.472656 2031.042969 C 719.511719 2033.4375 731.601562 2035.535156 743.742188 2037.335938 C 755.882812 2039.136719 768.058594 2040.636719 780.273438 2041.839844 C 792.488281 2043.042969 804.726562 2043.945312 816.984375 2044.546875 C 829.242188 2045.152344 841.507812 2045.453125 853.78125 2045.453125 C 866.054688 2045.453125 878.320312 2045.152344 890.582031 2044.546875 C 902.839844 2043.945312 915.078125 2043.042969 927.289062 2041.839844 C 939.503906 2040.636719 951.683594 2039.136719 963.824219 2037.335938 C 975.964844 2035.535156 988.054688 2033.4375 1000.089844 2031.042969 C 1012.128906 2028.648438 1024.101562 2025.957031 1036.003906 2022.976562 C 1047.910156 2019.996094 1059.738281 2016.722656 1071.480469 2013.160156 C 1083.226562 2009.597656 1094.878906 2005.746094 1106.433594 2001.613281 C 1117.988281 1997.476562 1129.4375 1993.0625 1140.777344 1988.363281 C 1152.117188 1983.667969 1163.332031 1978.695312 1174.429688 1973.449219 C 1185.523438 1968.199219 1196.484375 1962.683594 1207.308594 1956.898438 C 1218.132812 1951.113281 1228.808594 1945.066406 1239.335938 1938.753906 C 1249.863281 1932.445312 1260.226562 1925.878906 1270.433594 1919.0625 C 1280.636719 1912.242188 1290.671875 1905.179688 1300.527344 1897.867188 C 1310.386719 1890.554688 1320.058594 1883.007812 1329.546875 1875.21875 C 1339.035156 1867.433594 1348.324219 1859.421875 1357.417969 1851.175781 C 1366.511719 1842.933594 1375.398438 1834.476562 1384.078125 1825.796875 C 1392.757812 1817.117188 1401.21875 1808.230469 1409.460938 1799.136719 C 1417.703125 1790.042969 1425.714844 1780.75 1433.503906 1771.265625 C 1441.289062 1761.777344 1448.835938 1752.105469 1456.148438 1742.246094 C 1463.460938 1732.386719 1470.527344 1722.355469 1477.34375 1712.152344 C 1484.164062 1701.945312 1490.726562 1691.578125 1497.039062 1681.050781 C 1503.347656 1670.523438 1509.394531 1659.847656 1515.179688 1649.023438 C 1520.964844 1638.199219 1526.484375 1627.242188 1531.730469 1616.144531 C 1536.976562 1605.050781 1541.949219 1593.832031 1546.648438 1582.492188 C 1551.34375 1571.15625 1555.761719 1559.707031 1559.894531 1548.152344 C 1564.03125 1536.59375 1567.878906 1524.945312 1571.441406 1513.199219 C 1575.003906 1501.453125 1578.277344 1489.628906 1581.257812 1477.722656 C 1584.242188 1465.816406 1586.929688 1453.847656 1589.324219 1441.808594 C 1591.71875 1429.769531 1593.816406 1417.679688 1595.617188 1405.539062 C 1597.417969 1393.398438 1598.917969 1381.222656 1600.121094 1369.007812 C 1601.324219 1356.792969 1602.226562 1344.558594 1602.832031 1332.296875 C 1603.433594 1320.039062 1603.734375 1307.773438 1603.734375 1295.5 C 1603.734375 1283.226562 1603.433594 1270.960938 1602.832031 1258.703125 C 1602.226562 1246.441406 1601.324219 1234.207031 1600.121094 1221.992188 C 1598.917969 1209.777344 1597.417969 1197.601562 1595.617188 1185.460938 C 1593.816406 1173.320312 1591.71875 1161.230469 1589.324219 1149.191406 C 1586.929688 1137.152344 1584.242188 1125.183594 1581.257812 1113.277344 C 1578.277344 1101.371094 1575.003906 1089.546875 1571.441406 1077.800781 C 1567.878906 1066.054688 1564.03125 1054.40625 1559.894531 1042.847656 C 1555.761719 1031.292969 1551.34375 1019.84375 1546.648438 1008.507812 C 1541.949219 997.167969 1536.976562 985.949219 1531.730469 974.855469 C 1526.484375 963.757812 1520.964844 952.800781 1515.179688 941.976562 C 1509.394531 931.152344 1503.347656 920.476562 1497.039062 909.949219 C 1490.726562 899.421875 1484.164062 889.054688 1477.34375 878.847656 C 1470.527344 868.644531 1463.460938 858.613281 1456.148438 848.753906 C 1448.835938 838.894531 1441.289062 829.222656 1433.503906 819.734375 C 1425.714844 810.25 1417.703125 800.957031 1409.460938 791.863281 C 1401.21875 782.769531 1392.757812 773.882812 1384.078125 765.203125 C 1375.398438 756.527344 1366.511719 748.066406 1357.417969 739.824219 C 1348.324219 731.582031 1339.035156 723.566406 1329.546875 715.78125 C 1320.058594 707.992188 1310.386719 700.445312 1300.527344 693.132812 C 1290.671875 685.820312 1280.636719 678.757812 1270.433594 671.9375 C 1260.226562 665.121094 1249.863281 658.554688 1239.335938 652.246094 C 1228.808594 645.933594 1218.132812 639.886719 1207.308594 634.101562 C 1196.484375 628.316406 1185.523438 622.800781 1174.429688 617.550781 C 1163.332031 612.304688 1152.117188 607.332031 1140.777344 602.636719 C 1129.4375 597.9375 1117.988281 593.523438 1106.433594 589.386719 C 1094.878906 585.253906 1083.226562 581.402344 1071.480469 577.839844 C 1059.738281 574.277344 1047.910156 571.007812 1036.003906 568.023438 C 1024.101562 565.042969 1012.128906 562.351562 1000.089844 559.957031 C 988.054688 557.5625 975.964844 555.464844 963.824219 553.664062 C 951.683594 551.863281 939.503906 550.363281 927.289062 549.160156 C 915.078125 547.957031 902.839844 547.054688 890.582031 546.453125 C 878.320312 545.851562 866.054688 545.546875 853.78125 545.546875 Z M 853.78125 545.546875 " clip-rule="nonzero"/></clipPath><clipPath id="78f29f15a2"><path d="M 267.558594 709.277344 L 1440.109375 709.277344 L 1440.109375 1881.824219 L 267.558594 1881.824219 Z M 267.558594 709.277344 " clip-rule="nonzero"/></clipPath></defs><g clip-path="url(#a9a29f6e53)"><g clip-path="url(#bac360b41f)"><path fill="#ffffff" d="M 103.832031 545.546875 L 1603.734375 545.546875 L 1603.734375 2045.453125 L 103.832031 2045.453125 Z M 103.832031 545.546875 " fill-opacity="1" fill-rule="nonzero"/></g></g><g clip-path="url(#78f29f15a2)"><path fill="#1f4e70" d="M 853.835938 1881.824219 C 844.238281 1881.824219 834.648438 1881.589844 825.066406 1881.121094 C 815.484375 1880.648438 805.917969 1879.941406 796.371094 1879.003906 C 786.820312 1878.0625 777.300781 1876.886719 767.808594 1875.480469 C 758.320312 1874.070312 748.867188 1872.433594 739.457031 1870.558594 C 730.046875 1868.6875 720.6875 1866.585938 711.382812 1864.253906 C 702.074219 1861.925781 692.828125 1859.367188 683.648438 1856.582031 C 674.464844 1853.796875 665.359375 1850.785156 656.324219 1847.554688 C 647.289062 1844.320312 638.339844 1840.871094 629.476562 1837.199219 C 620.613281 1833.527344 611.84375 1829.640625 603.167969 1825.535156 C 594.496094 1821.433594 585.929688 1817.121094 577.464844 1812.597656 C 569.003906 1808.074219 560.660156 1803.347656 552.429688 1798.414062 C 544.199219 1793.484375 536.09375 1788.351562 528.117188 1783.019531 C 520.140625 1777.691406 512.296875 1772.167969 504.589844 1766.449219 C 496.882812 1760.734375 489.324219 1754.835938 481.90625 1748.746094 C 474.488281 1742.660156 467.226562 1736.394531 460.117188 1729.953125 C 453.007812 1723.507812 446.058594 1716.894531 439.277344 1710.109375 C 432.492188 1703.324219 425.878906 1696.378906 419.433594 1689.269531 C 412.992188 1682.160156 406.726562 1674.898438 400.636719 1667.480469 C 394.550781 1660.0625 388.648438 1652.5 382.933594 1644.792969 C 377.21875 1637.085938 371.695312 1629.246094 366.363281 1621.269531 C 361.035156 1613.289062 355.902344 1605.1875 350.96875 1596.957031 C 346.039062 1588.726562 341.308594 1580.382812 336.785156 1571.917969 C 332.265625 1563.457031 327.949219 1554.890625 323.847656 1546.214844 C 319.746094 1537.542969 315.859375 1528.773438 312.1875 1519.910156 C 308.515625 1511.042969 305.0625 1502.09375 301.832031 1493.0625 C 298.597656 1484.027344 295.589844 1474.917969 292.804688 1465.738281 C 290.019531 1456.554688 287.460938 1447.3125 285.128906 1438.003906 C 282.796875 1428.695312 280.695312 1419.339844 278.824219 1409.929688 C 276.953125 1400.515625 275.3125 1391.066406 273.90625 1381.574219 C 272.496094 1372.085938 271.324219 1362.566406 270.382812 1353.015625 C 269.441406 1343.46875 268.738281 1333.902344 268.265625 1324.320312 C 267.796875 1314.734375 267.558594 1305.148438 267.558594 1295.550781 C 267.558594 1285.957031 267.796875 1276.367188 268.265625 1266.785156 C 268.738281 1257.203125 269.441406 1247.636719 270.382812 1238.085938 C 271.324219 1228.539062 272.496094 1219.019531 273.90625 1209.527344 C 275.3125 1200.035156 276.953125 1190.585938 278.824219 1181.175781 C 280.695312 1171.765625 282.796875 1162.40625 285.128906 1153.097656 C 287.460938 1143.792969 290.019531 1134.546875 292.804688 1125.367188 C 295.589844 1116.183594 298.597656 1107.074219 301.832031 1098.042969 C 305.0625 1089.007812 308.515625 1080.058594 312.1875 1071.195312 C 315.859375 1062.328125 319.746094 1053.5625 323.847656 1044.886719 C 327.949219 1036.214844 332.265625 1027.644531 336.785156 1019.183594 C 341.308594 1010.722656 346.039062 1002.375 350.96875 994.148438 C 355.902344 985.917969 361.035156 977.8125 366.363281 969.835938 C 371.695312 961.859375 377.21875 954.015625 382.933594 946.308594 C 388.648438 938.601562 394.550781 931.039062 400.636719 923.625 C 406.726562 916.207031 412.992188 908.945312 419.433594 901.835938 C 425.878906 894.726562 432.492188 887.777344 439.277344 880.992188 C 446.058594 874.207031 453.007812 867.59375 460.117188 861.152344 C 467.226562 854.707031 474.488281 848.441406 481.90625 842.355469 C 489.324219 836.269531 496.882812 830.367188 504.589844 824.652344 C 512.296875 818.9375 520.140625 813.414062 528.117188 808.082031 C 536.09375 802.753906 544.199219 797.621094 552.429688 792.6875 C 560.660156 787.753906 569.003906 783.027344 577.464844 778.503906 C 585.929688 773.980469 594.496094 769.667969 603.167969 765.566406 C 611.84375 761.464844 620.613281 757.578125 629.476562 753.90625 C 638.339844 750.234375 647.289062 746.78125 656.324219 743.550781 C 665.359375 740.316406 674.464844 737.308594 683.648438 734.523438 C 692.828125 731.738281 702.074219 729.179688 711.382812 726.847656 C 720.6875 724.515625 730.046875 722.414062 739.457031 720.542969 C 748.867188 718.671875 758.320312 717.03125 767.808594 715.625 C 777.300781 714.214844 786.820312 713.042969 796.371094 712.101562 C 805.917969 711.160156 815.484375 710.453125 825.066406 709.984375 C 834.648438 709.511719 844.238281 709.277344 853.835938 709.277344 C 863.429688 709.277344 873.019531 709.511719 882.601562 709.984375 C 892.183594 710.453125 901.75 711.160156 911.300781 712.101562 C 920.847656 713.042969 930.367188 714.214844 939.859375 715.625 C 949.347656 717.03125 958.800781 718.671875 968.210938 720.542969 C 977.621094 722.414062 986.980469 724.515625 996.285156 726.847656 C 1005.59375 729.179688 1014.839844 731.738281 1024.019531 734.523438 C 1033.203125 737.308594 1042.308594 740.316406 1051.34375 743.550781 C 1060.378906 746.78125 1069.328125 750.234375 1078.191406 753.90625 C 1087.054688 757.578125 1095.824219 761.464844 1104.5 765.566406 C 1113.171875 769.667969 1121.738281 773.980469 1130.203125 778.503906 C 1138.664062 783.027344 1147.007812 787.753906 1155.238281 792.6875 C 1163.46875 797.621094 1171.574219 802.753906 1179.550781 808.082031 C 1187.527344 813.414062 1195.371094 818.9375 1203.078125 824.652344 C 1210.785156 830.367188 1218.34375 836.269531 1225.761719 842.355469 C 1233.179688 848.441406 1240.441406 854.707031 1247.550781 861.152344 C 1254.660156 867.59375 1261.609375 874.207031 1268.390625 880.992188 C 1275.175781 887.777344 1281.789062 894.726562 1288.234375 901.835938 C 1294.675781 908.945312 1300.941406 916.207031 1307.03125 923.625 C 1313.117188 931.039062 1319.019531 938.601562 1324.734375 946.308594 C 1330.449219 954.015625 1335.972656 961.859375 1341.300781 969.835938 C 1346.632812 977.8125 1351.765625 985.917969 1356.699219 994.148438 C 1361.628906 1002.375 1366.359375 1010.722656 1370.882812 1019.183594 C 1375.402344 1027.644531 1379.714844 1036.214844 1383.820312 1044.886719 C 1387.921875 1053.5625 1391.808594 1062.328125 1395.480469 1071.195312 C 1399.152344 1080.058594 1402.605469 1089.007812 1405.835938 1098.042969 C 1409.070312 1107.074219 1412.078125 1116.183594 1414.863281 1125.367188 C 1417.648438 1134.546875 1420.207031 1143.792969 1422.539062 1153.097656 C 1424.867188 1162.40625 1426.972656 1171.765625 1428.84375 1181.175781 C 1430.714844 1190.585938 1432.355469 1200.035156 1433.761719 1209.527344 C 1435.171875 1219.019531 1436.34375 1228.539062 1437.285156 1238.085938 C 1438.226562 1247.636719 1438.929688 1257.203125 1439.402344 1266.785156 C 1439.871094 1276.367188 1440.109375 1285.957031 1440.109375 1295.550781 C 1440.097656 1305.144531 1439.851562 1314.730469 1439.371094 1324.308594 C 1438.886719 1333.886719 1438.171875 1343.449219 1437.222656 1352.996094 C 1436.273438 1362.539062 1435.089844 1372.054688 1433.675781 1381.542969 C 1432.257812 1391.027344 1430.609375 1400.476562 1428.730469 1409.882812 C 1426.851562 1419.285156 1424.742188 1428.640625 1422.40625 1437.945312 C 1420.066406 1447.246094 1417.5 1456.484375 1414.710938 1465.664062 C 1411.917969 1474.839844 1408.90625 1483.941406 1405.667969 1492.972656 C 1402.429688 1502 1398.976562 1510.945312 1395.300781 1519.804688 C 1391.625 1528.664062 1387.734375 1537.425781 1383.628906 1546.097656 C 1379.523438 1554.765625 1375.207031 1563.328125 1370.679688 1571.785156 C 1366.15625 1580.242188 1361.425781 1588.582031 1356.492188 1596.808594 C 1351.558594 1605.035156 1346.425781 1613.132812 1341.09375 1621.109375 C 1335.761719 1629.082031 1330.238281 1636.917969 1324.523438 1644.621094 C 1318.808594 1652.324219 1312.90625 1659.882812 1306.820312 1667.296875 C 1300.734375 1674.710938 1294.472656 1681.972656 1288.03125 1689.078125 C 1281.589844 1696.183594 1274.976562 1703.128906 1268.195312 1709.910156 C 1261.410156 1716.695312 1254.46875 1723.304688 1247.359375 1729.746094 C 1240.253906 1736.191406 1232.992188 1742.453125 1225.578125 1748.539062 C 1218.167969 1754.625 1210.609375 1760.527344 1202.90625 1766.242188 C 1195.203125 1771.957031 1187.363281 1777.480469 1179.390625 1782.8125 C 1171.417969 1788.144531 1163.316406 1793.277344 1155.089844 1798.210938 C 1146.867188 1803.144531 1138.523438 1807.875 1130.066406 1812.398438 C 1121.609375 1816.925781 1113.046875 1821.238281 1104.378906 1825.34375 C 1095.710938 1829.449219 1086.945312 1833.339844 1078.085938 1837.015625 C 1069.226562 1840.691406 1060.28125 1844.148438 1051.253906 1847.386719 C 1042.222656 1850.625 1033.121094 1853.636719 1023.945312 1856.429688 C 1014.769531 1859.21875 1005.527344 1861.785156 996.226562 1864.121094 C 986.921875 1866.460938 977.570312 1868.570312 968.164062 1870.449219 C 958.757812 1872.328125 949.3125 1873.976562 939.824219 1875.390625 C 930.339844 1876.808594 920.824219 1877.992188 911.277344 1878.941406 C 901.734375 1879.890625 892.171875 1880.605469 882.589844 1881.085938 C 873.011719 1881.566406 863.425781 1881.8125 853.835938 1881.824219 Z M 853.835938 770.992188 C 845.25 770.992188 836.667969 771.203125 828.09375 771.621094 C 819.519531 772.042969 810.960938 772.675781 802.417969 773.515625 C 793.875 774.359375 785.355469 775.410156 776.863281 776.667969 C 768.375 777.929688 759.917969 779.394531 751.496094 781.070312 C 743.078125 782.746094 734.703125 784.625 726.375 786.710938 C 718.046875 788.796875 709.777344 791.085938 701.5625 793.578125 C 693.347656 796.070312 685.199219 798.761719 677.113281 801.65625 C 669.03125 804.546875 661.023438 807.636719 653.09375 810.921875 C 645.160156 814.207031 637.316406 817.683594 629.554688 821.355469 C 621.792969 825.023438 614.128906 828.882812 606.558594 832.929688 C 598.988281 836.976562 591.519531 841.207031 584.15625 845.621094 C 576.792969 850.035156 569.542969 854.625 562.402344 859.394531 C 555.265625 864.164062 548.25 869.105469 541.355469 874.21875 C 534.457031 879.335938 527.691406 884.613281 521.054688 890.0625 C 514.421875 895.507812 507.921875 901.113281 501.5625 906.878906 C 495.199219 912.644531 488.984375 918.5625 482.914062 924.632812 C 476.84375 930.703125 470.925781 936.917969 465.160156 943.277344 C 459.394531 949.640625 453.789062 956.136719 448.34375 962.773438 C 442.898438 969.410156 437.617188 976.175781 432.503906 983.070312 C 427.390625 989.964844 422.445312 996.984375 417.679688 1004.121094 C 412.910156 1011.257812 408.316406 1018.511719 403.902344 1025.875 C 399.488281 1033.238281 395.257812 1040.703125 391.210938 1048.277344 C 387.164062 1055.847656 383.308594 1063.511719 379.636719 1071.273438 C 375.964844 1079.035156 372.488281 1086.878906 369.203125 1094.8125 C 365.917969 1102.742188 362.828125 1110.75 359.9375 1118.832031 C 357.042969 1126.914062 354.351562 1135.066406 351.859375 1143.28125 C 349.367188 1151.496094 347.078125 1159.765625 344.992188 1168.09375 C 342.90625 1176.421875 341.027344 1184.796875 339.351562 1193.214844 C 337.679688 1201.636719 336.210938 1210.089844 334.949219 1218.582031 C 333.691406 1227.074219 332.640625 1235.59375 331.800781 1244.136719 C 330.957031 1252.679688 330.328125 1261.238281 329.90625 1269.8125 C 329.484375 1278.386719 329.273438 1286.96875 329.273438 1295.550781 C 329.273438 1304.136719 329.484375 1312.714844 329.90625 1321.289062 C 330.328125 1329.863281 330.957031 1338.425781 331.800781 1346.96875 C 332.640625 1355.511719 333.691406 1364.027344 334.949219 1372.519531 C 336.210938 1381.011719 337.679688 1389.46875 339.351562 1397.886719 C 341.027344 1406.308594 342.90625 1414.683594 344.992188 1423.007812 C 347.078125 1431.335938 349.367188 1439.609375 351.859375 1447.824219 C 354.351562 1456.039062 357.042969 1464.1875 359.9375 1472.269531 C 362.828125 1480.355469 365.917969 1488.359375 369.203125 1496.292969 C 372.488281 1504.222656 375.964844 1512.070312 379.636719 1519.832031 C 383.308594 1527.589844 387.164062 1535.257812 391.210938 1542.828125 C 395.257812 1550.398438 399.488281 1557.867188 403.902344 1565.230469 C 408.316406 1572.59375 412.910156 1579.84375 417.679688 1586.980469 C 422.445312 1594.121094 427.390625 1601.136719 432.503906 1608.03125 C 437.617188 1614.925781 442.898438 1621.691406 448.34375 1628.328125 C 453.789062 1634.964844 459.394531 1641.464844 465.160156 1647.824219 C 470.925781 1654.1875 476.84375 1660.402344 482.914062 1666.472656 C 488.984375 1672.542969 495.199219 1678.460938 501.5625 1684.226562 C 507.921875 1689.992188 514.421875 1695.597656 521.054688 1701.042969 C 527.691406 1706.488281 534.457031 1711.769531 541.355469 1716.882812 C 548.25 1721.996094 555.265625 1726.9375 562.402344 1731.707031 C 569.542969 1736.476562 576.792969 1741.070312 584.15625 1745.484375 C 591.519531 1749.894531 598.988281 1754.125 606.558594 1758.171875 C 614.128906 1762.21875 621.792969 1766.078125 629.554688 1769.75 C 637.316406 1773.417969 645.160156 1776.898438 653.09375 1780.183594 C 661.023438 1783.46875 669.03125 1786.554688 677.113281 1789.449219 C 685.199219 1792.339844 693.347656 1795.03125 701.5625 1797.523438 C 709.777344 1800.015625 718.046875 1802.304688 726.375 1804.390625 C 734.703125 1806.476562 743.078125 1808.359375 751.496094 1810.03125 C 759.917969 1811.707031 768.375 1813.175781 776.863281 1814.433594 C 785.355469 1815.695312 793.875 1816.746094 802.417969 1817.585938 C 810.960938 1818.429688 819.519531 1819.058594 828.09375 1819.480469 C 836.667969 1819.902344 845.25 1820.113281 853.835938 1820.113281 C 862.417969 1820.113281 871 1819.902344 879.574219 1819.480469 C 888.148438 1819.058594 896.707031 1818.429688 905.25 1817.585938 C 913.792969 1816.746094 922.3125 1815.695312 930.804688 1814.433594 C 939.296875 1813.175781 947.75 1811.707031 956.171875 1810.03125 C 964.589844 1808.359375 972.964844 1806.476562 981.292969 1804.390625 C 989.621094 1802.304688 997.890625 1800.015625 1006.105469 1797.523438 C 1014.320312 1795.03125 1022.46875 1792.339844 1030.554688 1789.449219 C 1038.636719 1786.554688 1046.644531 1783.46875 1054.574219 1780.183594 C 1062.507812 1776.898438 1070.351562 1773.417969 1078.113281 1769.75 C 1085.875 1766.078125 1093.539062 1762.21875 1101.109375 1758.171875 C 1108.679688 1754.125 1116.148438 1749.894531 1123.511719 1745.480469 C 1130.875 1741.070312 1138.125 1736.476562 1145.265625 1731.707031 C 1152.402344 1726.9375 1159.417969 1721.996094 1166.316406 1716.882812 C 1173.210938 1711.769531 1179.976562 1706.488281 1186.613281 1701.042969 C 1193.246094 1695.597656 1199.746094 1689.992188 1206.109375 1684.226562 C 1212.46875 1678.460938 1218.683594 1672.542969 1224.753906 1666.472656 C 1230.824219 1660.402344 1236.742188 1654.1875 1242.507812 1647.824219 C 1248.273438 1641.464844 1253.878906 1634.964844 1259.324219 1628.328125 C 1264.769531 1621.691406 1270.050781 1614.925781 1275.164062 1608.03125 C 1280.277344 1601.136719 1285.222656 1594.121094 1289.992188 1586.980469 C 1294.761719 1579.84375 1299.351562 1572.59375 1303.765625 1565.230469 C 1308.179688 1557.867188 1312.410156 1550.398438 1316.457031 1542.828125 C 1320.503906 1535.257812 1324.359375 1527.589844 1328.03125 1519.832031 C 1331.703125 1512.070312 1335.179688 1504.222656 1338.464844 1496.292969 C 1341.75 1488.359375 1344.839844 1480.355469 1347.730469 1472.269531 C 1350.625 1464.1875 1353.316406 1456.039062 1355.808594 1447.824219 C 1358.300781 1439.609375 1360.589844 1431.335938 1362.675781 1423.007812 C 1364.761719 1414.683594 1366.640625 1406.308594 1368.316406 1397.886719 C 1369.992188 1389.46875 1371.457031 1381.011719 1372.71875 1372.519531 C 1373.976562 1364.027344 1375.027344 1355.511719 1375.867188 1346.96875 C 1376.710938 1338.425781 1377.339844 1329.863281 1377.761719 1321.289062 C 1378.183594 1312.714844 1378.394531 1304.136719 1378.394531 1295.550781 C 1378.382812 1286.96875 1378.164062 1278.394531 1377.734375 1269.820312 C 1377.304688 1261.25 1376.664062 1252.695312 1375.8125 1244.15625 C 1374.964844 1235.613281 1373.90625 1227.101562 1372.636719 1218.613281 C 1371.371094 1210.125 1369.894531 1201.671875 1368.214844 1193.257812 C 1366.53125 1184.84375 1364.644531 1176.472656 1362.554688 1168.148438 C 1360.460938 1159.824219 1358.167969 1151.558594 1355.667969 1143.347656 C 1353.171875 1135.136719 1350.476562 1126.992188 1347.578125 1118.914062 C 1344.683594 1110.835938 1341.589844 1102.832031 1338.300781 1094.90625 C 1335.011719 1086.980469 1331.53125 1079.136719 1327.855469 1071.382812 C 1324.183594 1063.625 1320.324219 1055.964844 1316.273438 1048.398438 C 1312.226562 1040.832031 1307.992188 1033.367188 1303.578125 1026.007812 C 1299.164062 1018.648438 1294.570312 1011.402344 1289.800781 1004.265625 C 1285.03125 997.132812 1280.089844 990.121094 1274.976562 983.226562 C 1269.863281 976.335938 1264.582031 969.574219 1259.136719 962.941406 C 1253.691406 956.304688 1248.085938 949.808594 1242.324219 943.453125 C 1236.558594 937.09375 1230.644531 930.878906 1224.574219 924.8125 C 1218.503906 918.742188 1212.292969 912.828125 1205.933594 907.0625 C 1199.574219 901.300781 1193.078125 895.695312 1186.445312 890.25 C 1179.8125 884.804688 1173.050781 879.523438 1166.15625 874.410156 C 1159.265625 869.296875 1152.253906 864.355469 1145.117188 859.585938 C 1137.984375 854.816406 1130.738281 850.222656 1123.378906 845.808594 C 1116.019531 841.394531 1108.554688 837.160156 1100.988281 833.113281 C 1093.421875 829.0625 1085.761719 825.203125 1078.003906 821.527344 C 1070.246094 817.855469 1062.40625 814.375 1054.480469 811.085938 C 1046.550781 807.796875 1038.550781 804.703125 1030.472656 801.808594 C 1022.390625 798.910156 1014.246094 796.214844 1006.039062 793.714844 C 997.828125 791.21875 989.558594 788.925781 981.234375 786.832031 C 972.914062 784.742188 964.542969 782.855469 956.128906 781.171875 C 947.710938 779.492188 939.261719 778.015625 930.773438 776.75 C 922.285156 775.480469 913.769531 774.421875 905.230469 773.574219 C 896.691406 772.722656 888.136719 772.082031 879.5625 771.652344 C 870.992188 771.222656 862.417969 771 853.835938 770.992188 Z M 736.578125 1556.351562 C 734.550781 1556.351562 732.539062 1556.152344 730.550781 1555.753906 C 728.558594 1555.359375 726.625 1554.769531 724.753906 1553.992188 C 722.878906 1553.214844 721.097656 1552.257812 719.410156 1551.128906 C 717.726562 1550 716.164062 1548.714844 714.734375 1547.277344 L 515.957031 1348.441406 C 515.21875 1347.730469 514.523438 1346.984375 513.859375 1346.207031 C 513.199219 1345.425781 512.578125 1344.617188 512 1343.777344 C 511.417969 1342.933594 510.882812 1342.066406 510.386719 1341.171875 C 509.890625 1340.28125 509.445312 1339.363281 509.039062 1338.425781 C 508.636719 1337.484375 508.28125 1336.527344 507.972656 1335.554688 C 507.664062 1334.582031 507.40625 1333.59375 507.195312 1332.59375 C 506.984375 1331.59375 506.824219 1330.585938 506.714844 1329.570312 C 506.605469 1328.554688 506.546875 1327.535156 506.535156 1326.511719 C 506.527344 1325.492188 506.570312 1324.472656 506.660156 1323.453125 C 506.753906 1322.4375 506.898438 1321.425781 507.089844 1320.421875 C 507.28125 1319.417969 507.523438 1318.429688 507.816406 1317.449219 C 508.105469 1316.46875 508.445312 1315.507812 508.832031 1314.5625 C 509.21875 1313.613281 509.652344 1312.691406 510.132812 1311.789062 C 510.609375 1310.886719 511.132812 1310.007812 511.699219 1309.15625 C 512.265625 1308.308594 512.871094 1307.488281 513.519531 1306.695312 C 514.164062 1305.90625 514.851562 1305.148438 515.574219 1304.425781 C 516.296875 1303.703125 517.050781 1303.019531 517.84375 1302.371094 C 518.632812 1301.722656 519.453125 1301.117188 520.304688 1300.550781 C 521.15625 1299.984375 522.03125 1299.464844 522.933594 1298.984375 C 523.835938 1298.507812 524.761719 1298.074219 525.707031 1297.6875 C 526.652344 1297.300781 527.617188 1296.960938 528.59375 1296.667969 C 529.574219 1296.378906 530.566406 1296.136719 531.570312 1295.941406 C 532.574219 1295.75 533.582031 1295.609375 534.601562 1295.515625 C 535.617188 1295.421875 536.636719 1295.378906 537.660156 1295.390625 C 538.679688 1295.398438 539.699219 1295.457031 540.714844 1295.566406 C 541.730469 1295.679688 542.738281 1295.839844 543.738281 1296.046875 C 544.738281 1296.257812 545.726562 1296.519531 546.699219 1296.828125 C 547.675781 1297.132812 548.632812 1297.492188 549.570312 1297.894531 C 550.507812 1298.296875 551.425781 1298.746094 552.320312 1299.238281 C 553.214844 1299.734375 554.082031 1300.273438 554.921875 1300.851562 C 555.761719 1301.433594 556.574219 1302.054688 557.351562 1302.714844 C 558.132812 1303.375 558.875 1304.074219 559.585938 1304.808594 L 736.578125 1481.863281 L 1141.355469 1077.027344 C 1142.074219 1076.332031 1142.824219 1075.671875 1143.609375 1075.050781 C 1144.390625 1074.429688 1145.203125 1073.847656 1146.039062 1073.308594 C 1146.878906 1072.765625 1147.742188 1072.261719 1148.632812 1071.804688 C 1149.519531 1071.347656 1150.425781 1070.933594 1151.355469 1070.5625 C 1152.285156 1070.191406 1153.226562 1069.867188 1154.1875 1069.585938 C 1155.148438 1069.308594 1156.117188 1069.078125 1157.101562 1068.894531 C 1158.082031 1068.710938 1159.070312 1068.574219 1160.066406 1068.484375 C 1161.0625 1068.394531 1162.058594 1068.355469 1163.058594 1068.363281 C 1164.058594 1068.375 1165.054688 1068.429688 1166.050781 1068.535156 C 1167.042969 1068.640625 1168.03125 1068.796875 1169.007812 1068.996094 C 1169.988281 1069.199219 1170.953125 1069.445312 1171.910156 1069.742188 C 1172.863281 1070.039062 1173.800781 1070.378906 1174.722656 1070.765625 C 1175.644531 1071.152344 1176.546875 1071.582031 1177.425781 1072.054688 C 1178.304688 1072.527344 1179.160156 1073.042969 1179.988281 1073.601562 C 1180.820312 1074.160156 1181.621094 1074.753906 1182.394531 1075.390625 C 1183.164062 1076.023438 1183.902344 1076.695312 1184.609375 1077.402344 C 1185.316406 1078.109375 1185.988281 1078.847656 1186.621094 1079.621094 C 1187.257812 1080.390625 1187.855469 1081.191406 1188.410156 1082.023438 C 1188.96875 1082.851562 1189.484375 1083.707031 1189.957031 1084.585938 C 1190.429688 1085.464844 1190.863281 1086.367188 1191.246094 1087.289062 C 1191.632812 1088.210938 1191.976562 1089.148438 1192.269531 1090.101562 C 1192.566406 1091.058594 1192.8125 1092.023438 1193.015625 1093.003906 C 1193.214844 1093.984375 1193.371094 1094.96875 1193.476562 1095.960938 C 1193.582031 1096.957031 1193.636719 1097.953125 1193.648438 1098.953125 C 1193.65625 1099.953125 1193.617188 1100.949219 1193.527344 1101.945312 C 1193.441406 1102.941406 1193.304688 1103.929688 1193.117188 1104.910156 C 1192.933594 1105.894531 1192.703125 1106.863281 1192.425781 1107.824219 C 1192.144531 1108.785156 1191.820312 1109.726562 1191.449219 1110.65625 C 1191.082031 1111.585938 1190.664062 1112.492188 1190.207031 1113.378906 C 1189.75 1114.269531 1189.25 1115.132812 1188.707031 1115.972656 C 1188.164062 1116.8125 1187.582031 1117.621094 1186.960938 1118.40625 C 1186.339844 1119.1875 1185.679688 1119.9375 1184.984375 1120.65625 L 758.425781 1547.277344 C 756.992188 1548.714844 755.433594 1550 753.746094 1551.128906 C 752.0625 1552.257812 750.28125 1553.214844 748.40625 1553.992188 C 746.53125 1554.769531 744.597656 1555.359375 742.609375 1555.753906 C 740.617188 1556.152344 738.609375 1556.351562 736.578125 1556.351562 Z M 736.578125 1556.351562 " fill-opacity="1" fill-rule="nonzero"/></g><g fill="#ffffff" fill-opacity="1"><g transform="translate(1875.120639, 1384.083409)"><g><path d="M 176.109375 -60 C 186.222656 -60 196.046875 -61.523438 205.578125 -64.578125 C 215.109375 -67.640625 222.109375 -70.582031 226.578125 -73.40625 L 233.28125 -78 L 261.515625 -21.53125 C 260.578125 -20.820312 259.28125 -19.878906 257.625 -18.703125 C 255.976562 -17.523438 252.15625 -15.347656 246.15625 -12.171875 C 240.15625 -8.992188 233.742188 -6.226562 226.921875 -3.875 C 220.097656 -1.53125 211.15625 0.582031 200.09375 2.46875 C 189.039062 4.351562 177.632812 5.296875 165.875 5.296875 C 138.8125 5.296875 113.160156 -1.347656 88.921875 -14.640625 C 64.691406 -27.941406 45.164062 -46.238281 30.34375 -69.53125 C 15.53125 -92.820312 8.125 -117.992188 8.125 -145.046875 C 8.125 -165.515625 12.472656 -185.160156 21.171875 -203.984375 C 29.878906 -222.804688 41.46875 -238.921875 55.9375 -252.328125 C 70.40625 -265.742188 87.285156 -276.453125 106.578125 -284.453125 C 125.867188 -292.453125 145.632812 -296.453125 165.875 -296.453125 C 184.695312 -296.453125 202.046875 -294.21875 217.921875 -289.75 C 233.804688 -285.28125 245.046875 -280.8125 251.640625 -276.34375 L 261.515625 -269.625 L 233.28125 -213.171875 C 231.632812 -214.578125 229.160156 -216.28125 225.859375 -218.28125 C 222.566406 -220.28125 215.976562 -222.925781 206.09375 -226.21875 C 196.21875 -229.507812 186.222656 -231.15625 176.109375 -231.15625 C 160.109375 -231.15625 145.753906 -228.566406 133.046875 -223.390625 C 120.347656 -218.222656 110.289062 -211.398438 102.875 -202.921875 C 95.46875 -194.453125 89.820312 -185.335938 85.9375 -175.578125 C 82.050781 -165.816406 80.109375 -155.875 80.109375 -145.75 C 80.109375 -123.632812 88.398438 -103.8125 104.984375 -86.28125 C 121.578125 -68.757812 145.285156 -60 176.109375 -60 Z M 176.109375 -60 "/></g></g></g><g fill="#ffffff" fill-opacity="1"><g transform="translate(2211.409938, 1384.083409)"><g><path d="M 87.53125 -291.15625 L 87.53125 -58.234375 L 187.75 -58.234375 L 187.75 0 L 21.171875 0 L 21.171875 -291.15625 Z M 87.53125 -291.15625 "/></g></g></g><g fill="#ffffff" fill-opacity="1"><g transform="translate(2481.362101, 1384.083409)"><g><path d="M 169.046875 -291.15625 L 286.578125 0 L 215.28125 0 L 193.75 -58.234375 L 82.9375 -58.234375 L 61.40625 0 L -9.875 0 L 107.640625 -291.15625 Z M 171.171875 -116.46875 L 138.703125 -201.171875 L 138 -201.171875 L 105.53125 -116.46875 Z M 171.171875 -116.46875 "/></g></g></g><g fill="#ffffff" fill-opacity="1"><g transform="translate(2828.589844, 1384.083409)"><g><path d="M 128.46875 -296.453125 C 144.226562 -296.453125 159.632812 -294.15625 174.6875 -289.5625 C 189.75 -284.976562 200.925781 -280.453125 208.21875 -275.984375 L 218.8125 -268.921875 L 191.984375 -215.984375 C 189.867188 -217.398438 186.925781 -219.222656 183.15625 -221.453125 C 179.394531 -223.691406 172.335938 -226.691406 161.984375 -230.453125 C 151.640625 -234.222656 141.992188 -236.109375 133.046875 -236.109375 C 121.992188 -236.109375 113.46875 -233.753906 107.46875 -229.046875 C 101.46875 -224.335938 98.46875 -217.984375 98.46875 -209.984375 C 98.46875 -205.984375 99.878906 -202.273438 102.703125 -198.859375 C 105.523438 -195.453125 110.347656 -191.804688 117.171875 -187.921875 C 123.992188 -184.046875 129.992188 -180.929688 135.171875 -178.578125 C 140.347656 -176.222656 148.347656 -172.691406 159.171875 -167.984375 C 177.992188 -159.984375 194.050781 -149.101562 207.34375 -135.34375 C 220.632812 -121.582031 227.28125 -105.992188 227.28125 -88.578125 C 227.28125 -71.878906 224.28125 -57.289062 218.28125 -44.8125 C 212.28125 -32.34375 204.046875 -22.578125 193.578125 -15.515625 C 183.109375 -8.460938 171.519531 -3.234375 158.8125 0.171875 C 146.101562 3.585938 132.335938 5.296875 117.515625 5.296875 C 104.816406 5.296875 92.347656 4 80.109375 1.40625 C 67.878906 -1.175781 57.644531 -4.40625 49.40625 -8.28125 C 41.175781 -12.164062 33.765625 -15.988281 27.171875 -19.75 C 20.585938 -23.519531 15.765625 -26.703125 12.703125 -29.296875 L 8.125 -33.171875 L 41.296875 -88.9375 C 44.117188 -86.582031 48 -83.582031 52.9375 -79.9375 C 57.875 -76.289062 66.632812 -71.40625 79.21875 -65.28125 C 91.8125 -59.164062 102.929688 -56.109375 112.578125 -56.109375 C 140.578125 -56.109375 154.578125 -65.640625 154.578125 -84.703125 C 154.578125 -88.703125 153.578125 -92.40625 151.578125 -95.8125 C 149.578125 -99.226562 146.046875 -102.640625 140.984375 -106.046875 C 135.929688 -109.460938 131.460938 -112.171875 127.578125 -114.171875 C 123.703125 -116.171875 117.347656 -119.226562 108.515625 -123.34375 C 99.691406 -127.457031 93.164062 -130.578125 88.9375 -132.703125 C 71.289062 -141.398438 57.644531 -152.28125 48 -165.34375 C 38.351562 -178.40625 33.53125 -192.460938 33.53125 -207.515625 C 33.53125 -233.628906 43.175781 -254.976562 62.46875 -271.5625 C 81.757812 -288.15625 103.757812 -296.453125 128.46875 -296.453125 Z M 128.46875 -296.453125 "/></g></g></g><g fill="#ffffff" fill-opacity="1"><g transform="translate(3136.297787, 1384.083409)"><g><path d="M 128.46875 -296.453125 C 144.226562 -296.453125 159.632812 -294.15625 174.6875 -289.5625 C 189.75 -284.976562 200.925781 -280.453125 208.21875 -275.984375 L 218.8125 -268.921875 L 191.984375 -215.984375 C 189.867188 -217.398438 186.925781 -219.222656 183.15625 -221.453125 C 179.394531 -223.691406 172.335938 -226.691406 161.984375 -230.453125 C 151.640625 -234.222656 141.992188 -236.109375 133.046875 -236.109375 C 121.992188 -236.109375 113.46875 -233.753906 107.46875 -229.046875 C 101.46875 -224.335938 98.46875 -217.984375 98.46875 -209.984375 C 98.46875 -205.984375 99.878906 -202.273438 102.703125 -198.859375 C 105.523438 -195.453125 110.347656 -191.804688 117.171875 -187.921875 C 123.992188 -184.046875 129.992188 -180.929688 135.171875 -178.578125 C 140.347656 -176.222656 148.347656 -172.691406 159.171875 -167.984375 C 177.992188 -159.984375 194.050781 -149.101562 207.34375 -135.34375 C 220.632812 -121.582031 227.28125 -105.992188 227.28125 -88.578125 C 227.28125 -71.878906 224.28125 -57.289062 218.28125 -44.8125 C 212.28125 -32.34375 204.046875 -22.578125 193.578125 -15.515625 C 183.109375 -8.460938 171.519531 -3.234375 158.8125 0.171875 C 146.101562 3.585938 132.335938 5.296875 117.515625 5.296875 C 104.816406 5.296875 92.347656 4 80.109375 1.40625 C 67.878906 -1.175781 57.644531 -4.40625 49.40625 -8.28125 C 41.175781 -12.164062 33.765625 -15.988281 27.171875 -19.75 C 20.585938 -23.519531 15.765625 -26.703125 12.703125 -29.296875 L 8.125 -33.171875 L 41.296875 -88.9375 C 44.117188 -86.582031 48 -83.582031 52.9375 -79.9375 C 57.875 -76.289062 66.632812 -71.40625 79.21875 -65.28125 C 91.8125 -59.164062 102.929688 -56.109375 112.578125 -56.109375 C 140.578125 -56.109375 154.578125 -65.640625 154.578125 -84.703125 C 154.578125 -88.703125 153.578125 -92.40625 151.578125 -95.8125 C 149.578125 -99.226562 146.046875 -102.640625 140.984375 -106.046875 C 135.929688 -109.460938 131.460938 -112.171875 127.578125 -114.171875 C 123.703125 -116.171875 117.347656 -119.226562 108.515625 -123.34375 C 99.691406 -127.457031 93.164062 -130.578125 88.9375 -132.703125 C 71.289062 -141.398438 57.644531 -152.28125 48 -165.34375 C 38.351562 -178.40625 33.53125 -192.460938 33.53125 -207.515625 C 33.53125 -233.628906 43.175781 -254.976562 62.46875 -271.5625 C 81.757812 -288.15625 103.757812 -296.453125 128.46875 -296.453125 Z M 128.46875 -296.453125 "/></g></g></g><g fill="#ffffff" fill-opacity="1"><g transform="translate(3444.00573, 1384.083409)"><g><path d="M 176.109375 -60 C 186.222656 -60 196.046875 -61.523438 205.578125 -64.578125 C 215.109375 -67.640625 222.109375 -70.582031 226.578125 -73.40625 L 233.28125 -78 L 261.515625 -21.53125 C 260.578125 -20.820312 259.28125 -19.878906 257.625 -18.703125 C 255.976562 -17.523438 252.15625 -15.347656 246.15625 -12.171875 C 240.15625 -8.992188 233.742188 -6.226562 226.921875 -3.875 C 220.097656 -1.53125 211.15625 0.582031 200.09375 2.46875 C 189.039062 4.351562 177.632812 5.296875 165.875 5.296875 C 138.8125 5.296875 113.160156 -1.347656 88.921875 -14.640625 C 64.691406 -27.941406 45.164062 -46.238281 30.34375 -69.53125 C 15.53125 -92.820312 8.125 -117.992188 8.125 -145.046875 C 8.125 -165.515625 12.472656 -185.160156 21.171875 -203.984375 C 29.878906 -222.804688 41.46875 -238.921875 55.9375 -252.328125 C 70.40625 -265.742188 87.285156 -276.453125 106.578125 -284.453125 C 125.867188 -292.453125 145.632812 -296.453125 165.875 -296.453125 C 184.695312 -296.453125 202.046875 -294.21875 217.921875 -289.75 C 233.804688 -285.28125 245.046875 -280.8125 251.640625 -276.34375 L 261.515625 -269.625 L 233.28125 -213.171875 C 231.632812 -214.578125 229.160156 -216.28125 225.859375 -218.28125 C 222.566406 -220.28125 215.976562 -222.925781 206.09375 -226.21875 C 196.21875 -229.507812 186.222656 -231.15625 176.109375 -231.15625 C 160.109375 -231.15625 145.753906 -228.566406 133.046875 -223.390625 C 120.347656 -218.222656 110.289062 -211.398438 102.875 -202.921875 C 95.46875 -194.453125 89.820312 -185.335938 85.9375 -175.578125 C 82.050781 -165.816406 80.109375 -155.875 80.109375 -145.75 C 80.109375 -123.632812 88.398438 -103.8125 104.984375 -86.28125 C 121.578125 -68.757812 145.285156 -60 176.109375 -60 Z M 176.109375 -60 "/></g></g></g><g fill="#ffffff" fill-opacity="1"><g transform="translate(3780.295028, 1384.083409)"><g><path d="M 87.53125 -116.8125 L 87.53125 0 L 21.171875 0 L 21.171875 -291.15625 L 87.53125 -291.15625 L 87.53125 -175.046875 L 181.40625 -175.046875 L 181.40625 -291.15625 L 247.75 -291.15625 L 247.75 0 L 181.40625 0 L 181.40625 -116.8125 Z M 87.53125 -116.8125 "/></g></g></g><g fill="#ffffff" fill-opacity="1"><g transform="translate(4119.760032, 1384.083409)"><g><path d="M 187.75 -291.15625 L 187.75 -232.921875 L 87.53125 -232.921875 L 87.53125 -175.046875 L 183.515625 -175.046875 L 183.515625 -116.8125 L 87.53125 -116.8125 L 87.53125 -58.234375 L 187.75 -58.234375 L 187.75 0 L 21.171875 0 L 21.171875 -291.15625 Z M 187.75 -291.15625 "/></g></g></g><g fill="#ffffff" fill-opacity="1"><g transform="translate(4395.005154, 1384.083409)"><g><path d="M 176.109375 -60 C 186.222656 -60 196.046875 -61.523438 205.578125 -64.578125 C 215.109375 -67.640625 222.109375 -70.582031 226.578125 -73.40625 L 233.28125 -78 L 261.515625 -21.53125 C 260.578125 -20.820312 259.28125 -19.878906 257.625 -18.703125 C 255.976562 -17.523438 252.15625 -15.347656 246.15625 -12.171875 C 240.15625 -8.992188 233.742188 -6.226562 226.921875 -3.875 C 220.097656 -1.53125 211.15625 0.582031 200.09375 2.46875 C 189.039062 4.351562 177.632812 5.296875 165.875 5.296875 C 138.8125 5.296875 113.160156 -1.347656 88.921875 -14.640625 C 64.691406 -27.941406 45.164062 -46.238281 30.34375 -69.53125 C 15.53125 -92.820312 8.125 -117.992188 8.125 -145.046875 C 8.125 -165.515625 12.472656 -185.160156 21.171875 -203.984375 C 29.878906 -222.804688 41.46875 -238.921875 55.9375 -252.328125 C 70.40625 -265.742188 87.285156 -276.453125 106.578125 -284.453125 C 125.867188 -292.453125 145.632812 -296.453125 165.875 -296.453125 C 184.695312 -296.453125 202.046875 -294.21875 217.921875 -289.75 C 233.804688 -285.28125 245.046875 -280.8125 251.640625 -276.34375 L 261.515625 -269.625 L 233.28125 -213.171875 C 231.632812 -214.578125 229.160156 -216.28125 225.859375 -218.28125 C 222.566406 -220.28125 215.976562 -222.925781 206.09375 -226.21875 C 196.21875 -229.507812 186.222656 -231.15625 176.109375 -231.15625 C 160.109375 -231.15625 145.753906 -228.566406 133.046875 -223.390625 C 120.347656 -218.222656 110.289062 -211.398438 102.875 -202.921875 C 95.46875 -194.453125 89.820312 -185.335938 85.9375 -175.578125 C 82.050781 -165.816406 80.109375 -155.875 80.109375 -145.75 C 80.109375 -123.632812 88.398438 -103.8125 104.984375 -86.28125 C 121.578125 -68.757812 145.285156 -60 176.109375 -60 Z M 176.109375 -60 "/></g></g></g><g fill="#ffffff" fill-opacity="1"><g transform="translate(4731.294453, 1384.083409)"><g><path d="M 286.21875 0 L 194.8125 0 L 87.53125 -123.515625 L 87.53125 0 L 21.171875 0 L 21.171875 -291.15625 L 87.53125 -291.15625 L 87.53125 -172.21875 L 187.40625 -291.15625 L 267.875 -291.15625 L 150.703125 -153.171875 Z M 286.21875 0 "/></g></g></g></svg>